<?xml version="1.0" encoding="UTF-8" standalone="no"?>
<svg
   viewBox="0 0 24 24"
   version="1.1"
   id="svg1"
   sodipodi:docname="download.svg"
   inkscape:export-filename="download.png"
   inkscape:export-xdpi="96"
   inkscape:export-ydpi="96"
   inkscape:version="1.4 (e7c3feb100, 2024-10-09)"
   xmlns:inkscape="http://www.inkscape.org/namespaces/inkscape"
   xmlns:sodipodi="http://sodipodi.sourceforge.net/DTD/sodipodi-0.dtd"
   xmlns="http://www.w3.org/2000/svg"
   xmlns:svg="http://www.w3.org/2000/svg">
  <sodipodi:namedview
     id="namedview1"
     pagecolor="#505050"
     bordercolor="#eeeeee"
     borderopacity="1"
     inkscape:showpageshadow="0"
     inkscape:pageopacity="0"
     inkscape:pagecheckerboard="0"
     inkscape:deskcolor="#505050"
     inkscape:zoom="33.75"
     inkscape:cx="11.985185"
     inkscape:cy="12"
     inkscape:window-width="1920"
     inkscape:window-height="1019"
     inkscape:window-x="0"
     inkscape:window-y="26"
     inkscape:window-maximized="1"
     inkscape:current-layer="svg1" />
  <defs
     id="defs3051">
    <style
       type="text/css"
       id="current-color-scheme">
      .ColorScheme-Text {
        color:#5d656b;
      }
      </style>
  </defs>
  <path
     transform="translate(1,1)"
     style="fill:#000000;fill-opacity:1;stroke:none"
     d="M 8 3 L 8 9 L 9 9 L 9 4 L 13 4 L 13 9 L 14 9 L 14 3 L 13 3 L 9 3 L 8 3 z M 5.7929688 10 L 5 10.816406 L 11 17 L 17 10.816406 L 16.207031 10 L 11 15.367188 L 5.7929688 10 z M 4 17 L 4 19 L 5 19 L 17 19 L 18 19 L 18 17 L 17 17 L 17 18 L 5 18 L 5 17 L 4 17 z "
     class="ColorScheme-Text"
     id="path1" />
</svg>
